# xmcd CD database file
#
# Track frame offsets:
#	150
#	18062
#	38475
#
# Disc length: 748 seconds
#
# Revision: 0
# Processed by: cddbd v1.5.1PL0 Copyright (c) Steve Scherf et al.
# Submitted via: CDex 1.51
#
DISCID=1102ea03
DTITLE=美勇伝 - 恋のヌケガラ
DYEAR=2004
DGENRE=JPop
TTITLE0=恋のヌケガラ
TTITLE1=銀杏〜私の空と私の心〜
TTITLE2=恋のヌケガラ(Instrumental)
EXTD=YEAR: 2004
EXTT0=
EXTT1=
EXTT2=
PLAYORDER=
